<svg xmlns="http://www.w3.org/2000/svg" xmlns:xlink="http://www.w3.org/1999/xlink" xmlns:ev="http://www.w3.org/2001/xml-events" version="1.1" width="1313.8671875" height="653" viewBox="-15 -15 1313.8671875 653"><text style="font-family: Verdana; font-size: 12px; font-weight: bold; fill: #000000; line-height: 15px;" transform="translate(929, 15)"><tspan x="0" y="0">1. Keine Frage</tspan><tspan x="0" y="15">2. Wo haben wir uns verlobt?</tspan><tspan x="0" y="30">3. Der Name unseres ersten gemeinsamen Haustiers</tspan><tspan x="0" y="45">4. Nachbar</tspan><tspan x="0" y="60">5. Anzahl Fahrzeuge verkauft</tspan><tspan x="0" y="75">6. Erstgeborener</tspan><tspan x="0" y="90">7. Die Lebendige</tspan><tspan x="0" y="105">8. Programmiersprache</tspan><tspan x="0" y="120">9. Restaurant in der Schweiz</tspan><tspan x="0" y="135">10. Bier</tspan><tspan x="0" y="150">11. Rhein-Zufluss</tspan><tspan x="0" y="165">12. Alle zwei</tspan><tspan x="0" y="180">13. Vierter griechischer Buchstabe</tspan><tspan x="0" y="195">14. Gewässer</tspan><tspan x="0" y="210">15. Automarke</tspan><tspan x="0" y="225">16. Badeort</tspan><tspan x="0" y="240">17. Alligatorenheimat</tspan><tspan x="0" y="255">18. Maya-Stätte</tspan><tspan x="0" y="270">19. Mit Wasser gefülltes Loch</tspan></text><g><g><rect x="494" y="283" width="35" height="35" fill="#000000"></rect><rect x="529" y="283" width="35" height="35" fill="#000000"></rect><rect x="564" y="283" width="35" height="35" fill="#000000"></rect><rect x="599" y="283" width="35" height="35" fill="#000000"></rect><rect x="774" y="283" width="35" height="35" fill="#000000"></rect><rect x="844" y="283" width="35" height="35" fill="#000000"></rect><rect x="424" y="283" width="35" height="35" fill="#000000"></rect><rect x="459" y="283" width="35" height="35" fill="#000000"></rect><rect x="319" y="283" width="35" height="35" fill="#000000"></rect><rect x="109" y="283" width="35" height="35" fill="#000000"></rect><rect x="494" y="318" width="35" height="35" fill="#000000"></rect><rect x="599" y="318" width="35" height="35" fill="#000000"></rect><rect x="774" y="318" width="35" height="35" fill="#000000"></rect><rect x="844" y="318" width="35" height="35" fill="#000000"></rect><rect x="424" y="318" width="35" height="35" fill="#000000"></rect><rect x="319" y="318" width="35" height="35" fill="#000000"></rect><rect x="249" y="318" width="35" height="35" fill="#000000"></rect><rect x="109" y="318" width="35" height="35" fill="#000000"></rect><rect x="494" y="353" width="35" height="35" fill="#000000"></rect><rect x="774" y="353" width="35" height="35" fill="#000000"></rect><rect x="844" y="353" width="35" height="35" fill="#000000"></rect><rect x="424" y="353" width="35" height="35" fill="#000000"></rect><rect x="319" y="353" width="35" height="35" fill="#000000"></rect><rect x="249" y="353" width="35" height="35" fill="#000000"></rect><rect x="494" y="388" width="35" height="35" fill="#000000"></rect><rect x="704" y="388" width="35" height="35" fill="#000000"></rect><rect x="774" y="388" width="35" height="35" fill="#000000"></rect><rect x="844" y="388" width="35" height="35" fill="#000000"></rect><rect x="424" y="388" width="35" height="35" fill="#000000"></rect><rect x="319" y="388" width="35" height="35" fill="#000000"></rect><rect x="249" y="388" width="35" height="35" fill="#000000"></rect><rect x="494" y="423" width="35" height="35" fill="#000000"></rect><rect x="669" y="423" width="35" height="35" fill="#000000"></rect><rect x="704" y="423" width="35" height="35" fill="#000000"></rect><rect x="739" y="423" width="35" height="35" fill="#000000"></rect><rect x="774" y="423" width="35" height="35" fill="#000000"></rect><rect x="809" y="423" width="35" height="35" fill="#000000"></rect><rect x="844" y="423" width="35" height="35" fill="#000000"></rect><rect x="879" y="423" width="35" height="35" fill="#000000"></rect><rect x="424" y="423" width="35" height="35" fill="#000000"></rect><rect x="249" y="423" width="35" height="35" fill="#000000"></rect><rect x="284" y="423" width="35" height="35" fill="#000000"></rect><rect x="319" y="423" width="35" height="35" fill="#000000"></rect><rect x="354" y="423" width="35" height="35" fill="#000000"></rect><rect x="389" y="423" width="35" height="35" fill="#000000"></rect><rect x="704" y="458" width="35" height="35" fill="#000000"></rect><rect x="774" y="458" width="35" height="35" fill="#000000"></rect><rect x="844" y="458" width="35" height="35" fill="#000000"></rect><rect x="424" y="458" width="35" height="35" fill="#000000"></rect><rect x="249" y="458" width="35" height="35" fill="#000000"></rect><rect x="704" y="493" width="35" height="35" fill="#000000"></rect><rect x="774" y="493" width="35" height="35" fill="#000000"></rect><rect x="599" y="248" width="35" height="35" fill="#000000"></rect><rect x="774" y="248" width="35" height="35" fill="#000000"></rect><rect x="844" y="248" width="35" height="35" fill="#000000"></rect><rect x="424" y="248" width="35" height="35" fill="#000000"></rect><rect x="319" y="248" width="35" height="35" fill="#000000"></rect><rect x="4" y="248" width="35" height="35" fill="#000000"></rect><rect x="39" y="248" width="35" height="35" fill="#000000"></rect><rect x="74" y="248" width="35" height="35" fill="#000000"></rect><rect x="109" y="248" width="35" height="35" fill="#000000"></rect><rect x="144" y="248" width="35" height="35" fill="#000000"></rect><rect x="179" y="248" width="35" height="35" fill="#000000"></rect><rect x="214" y="248" width="35" height="35" fill="#000000"></rect><rect x="249" y="248" width="35" height="35" fill="#000000"></rect><rect x="284" y="248" width="35" height="35" fill="#000000"></rect><rect x="494" y="213" width="35" height="35" fill="#000000"></rect><rect x="529" y="213" width="35" height="35" fill="#000000"></rect><rect x="564" y="213" width="35" height="35" fill="#000000"></rect><rect x="599" y="213" width="35" height="35" fill="#000000"></rect><rect x="634" y="213" width="35" height="35" fill="#000000"></rect><rect x="669" y="213" width="35" height="35" fill="#000000"></rect><rect x="704" y="213" width="35" height="35" fill="#000000"></rect><rect x="739" y="213" width="35" height="35" fill="#000000"></rect><rect x="774" y="213" width="35" height="35" fill="#000000"></rect><rect x="459" y="213" width="35" height="35" fill="#000000"></rect><rect x="109" y="213" width="35" height="35" fill="#000000"></rect><rect x="284" y="213" width="35" height="35" fill="#000000"></rect><rect x="739" y="38" width="35" height="35" fill="#000000"></rect><rect x="774" y="38" width="35" height="35" fill="#000000"></rect><rect x="809" y="38" width="35" height="35" fill="#000000"></rect><rect x="844" y="38" width="35" height="35" fill="#000000"></rect><rect x="879" y="38" width="35" height="35" fill="#000000"></rect><rect x="599" y="73" width="35" height="35" fill="#000000"></rect><rect x="704" y="73" width="35" height="35" fill="#000000"></rect><rect x="774" y="73" width="35" height="35" fill="#000000"></rect><rect x="494" y="108" width="35" height="35" fill="#000000"></rect><rect x="529" y="108" width="35" height="35" fill="#000000"></rect><rect x="564" y="108" width="35" height="35" fill="#000000"></rect><rect x="599" y="108" width="35" height="35" fill="#000000"></rect><rect x="634" y="108" width="35" height="35" fill="#000000"></rect><rect x="704" y="108" width="35" height="35" fill="#000000"></rect><rect x="774" y="108" width="35" height="35" fill="#000000"></rect><rect x="459" y="108" width="35" height="35" fill="#000000"></rect><rect x="599" y="143" width="35" height="35" fill="#000000"></rect><rect x="704" y="143" width="35" height="35" fill="#000000"></rect><rect x="774" y="143" width="35" height="35" fill="#000000"></rect><rect x="284" y="143" width="35" height="35" fill="#000000"></rect><rect x="599" y="178" width="35" height="35" fill="#000000"></rect><rect x="704" y="178" width="35" height="35" fill="#000000"></rect><rect x="774" y="178" width="35" height="35" fill="#000000"></rect><rect x="109" y="178" width="35" height="35" fill="#000000"></rect><rect x="284" y="178" width="35" height="35" fill="#000000"></rect><rect x="319" y="178" width="35" height="35" fill="#000000"></rect><rect x="354" y="178" width="35" height="35" fill="#000000"></rect><rect x="389" y="178" width="35" height="35" fill="#000000"></rect><rect x="774" y="3" width="35" height="35" fill="#000000"></rect></g><g transform="translate(490, 280)"><rect x="0" y="0" width="35" height="35" fill="#ffffff" stroke="#000000" stroke-width="1"></rect><text y="23.75" style="line-height: 1; font-family: Verdana; font-size: 16px; font-weight: bold; fill: #000000;" x="12.050252914428711">T</text><text x="0.5" y="10.5" style="line-height: 1; font-family: Verdana; font-size: 10px; font-weight: normal; fill: #000000;">▾18</text></g><g transform="translate(525, 280)"><rect x="0" y="0" width="35" height="35" fill="#ffffff" stroke="#000000" stroke-width="1"></rect><text y="23.75" style="line-height: 1; font-family: Verdana; font-size: 16px; font-weight: bold; fill: #000000;" x="10.804929733276367">H</text></g><g transform="translate(560, 280)"><rect x="0" y="0" width="35" height="35" fill="#ffffff" stroke="#000000" stroke-width="1"></rect><text y="23.75" style="line-height: 1; font-family: Verdana; font-size: 16px; font-weight: bold; fill: #000000;" x="10.70343542098999">O</text></g><g transform="translate(595, 280)"><rect x="0" y="0" width="35" height="35" fill="#ffffff" stroke="#000000" stroke-width="1"></rect><text y="23.75" style="line-height: 1; font-family: Verdana; font-size: 16px; font-weight: bold; fill: #000000;" x="10.730756282806396">N</text></g><g transform="translate(770, 280)"><rect x="0" y="0" width="35" height="35" fill="#ffffff" stroke="#000000" stroke-width="1"></rect><text y="23.75" style="line-height: 1; font-family: Verdana; font-size: 16px; font-weight: bold; fill: #000000;" x="10.70343542098999">Ö</text></g><g transform="translate(840, 280)"><rect x="0" y="0" width="35" height="35" fill="#d5d5d5" stroke="#000000" stroke-width="1"></rect><text y="23.75" style="line-height: 1; font-family: Verdana; font-size: 16px; font-weight: bold; fill: #000000;" x="10.730756282806396">N</text></g><g transform="translate(420, 280)"><rect x="0" y="0" width="35" height="35" fill="#ffffff" stroke="#000000" stroke-width="1"></rect><text y="23.75" style="line-height: 1; font-family: Verdana; font-size: 16px; font-weight: bold; fill: #000000;" x="11.640353679656982">P</text><text x="0.5" y="10.5" style="line-height: 1; font-family: Verdana; font-size: 10px; font-weight: normal; fill: #000000;">▸8</text></g><g transform="translate(455, 280)"><rect x="0" y="0" width="35" height="35" fill="#ffffff" stroke="#000000" stroke-width="1"></rect><text y="23.75" style="line-height: 1; font-family: Verdana; font-size: 16px; font-weight: bold; fill: #000000;" x="11.609118461608887">Y</text></g><g transform="translate(315, 280)"><rect x="0" y="0" width="35" height="35" fill="#d5d5d5" stroke="#000000" stroke-width="1"></rect><text y="23.75" style="line-height: 1; font-family: Verdana; font-size: 16px; font-weight: bold; fill: #000000;" x="13.135517597198486">I</text></g><g transform="translate(105, 280)"><rect x="0" y="0" width="35" height="35" fill="#ffffff" stroke="#000000" stroke-width="1"></rect><text y="23.75" style="line-height: 1; font-family: Verdana; font-size: 16px; font-weight: bold; fill: #000000;" x="13.135517597198486">I</text></g><g transform="translate(490, 315)"><rect x="0" y="0" width="35" height="35" fill="#ffffff" stroke="#000000" stroke-width="1"></rect><text y="23.75" style="line-height: 1; font-family: Verdana; font-size: 16px; font-weight: bold; fill: #000000;" x="11.007934093475342">U</text></g><g transform="translate(595, 315)"><rect x="0" y="0" width="35" height="35" fill="#ffffff" stroke="#000000" stroke-width="1"></rect><text y="23.75" style="line-height: 1; font-family: Verdana; font-size: 16px; font-weight: bold; fill: #000000;" x="12.038541793823242">E</text></g><g transform="translate(770, 315)"><rect x="0" y="0" width="35" height="35" fill="#ffffff" stroke="#000000" stroke-width="1"></rect><text y="23.75" style="line-height: 1; font-family: Verdana; font-size: 16px; font-weight: bold; fill: #000000;" x="11.81992769241333">S</text></g><g transform="translate(840, 315)"><rect x="0" y="0" width="35" height="35" fill="#ffffff" stroke="#000000" stroke-width="1"></rect><text y="23.75" style="line-height: 1; font-family: Verdana; font-size: 16px; font-weight: bold; fill: #000000;" x="12.050252914428711">T</text></g><g transform="translate(420, 315)"><rect x="0" y="0" width="35" height="35" fill="#ffffff" stroke="#000000" stroke-width="1"></rect><text y="23.75" style="line-height: 1; font-family: Verdana; font-size: 16px; font-weight: bold; fill: #000000;" x="10.70343542098999">O</text></g><g transform="translate(315, 315)"><rect x="0" y="0" width="35" height="35" fill="#ffffff" stroke="#000000" stroke-width="1"></rect><text y="23.75" style="line-height: 1; font-family: Verdana; font-size: 16px; font-weight: bold; fill: #000000;" x="12.038541793823242">E</text></g><g transform="translate(245, 315)"><rect x="0" y="0" width="35" height="35" fill="#ffffff" stroke="#000000" stroke-width="1"></rect><text y="23.75" style="line-height: 1; font-family: Verdana; font-size: 16px; font-weight: bold; fill: #000000;" x="11.410028457641602">B</text><text x="0.5" y="10.5" style="line-height: 1; font-family: Verdana; font-size: 10px; font-weight: normal; fill: #000000;">▾15</text></g><g transform="translate(105, 315)"><rect x="0" y="0" width="35" height="35" fill="#ffffff" stroke="#000000" stroke-width="1"></rect><text y="23.75" style="line-height: 1; font-family: Verdana; font-size: 16px; font-weight: bold; fill: #000000;" x="11.81992769241333">S</text></g><g transform="translate(490, 350)"><rect x="0" y="0" width="35" height="35" fill="#ffffff" stroke="#000000" stroke-width="1"></rect><text y="23.75" style="line-height: 1; font-family: Verdana; font-size: 16px; font-weight: bold; fill: #000000;" x="12.405502319335938">L</text></g><g transform="translate(770, 350)"><rect x="0" y="0" width="35" height="35" fill="#ffffff" stroke="#000000" stroke-width="1"></rect><text y="23.75" style="line-height: 1; font-family: Verdana; font-size: 16px; font-weight: bold; fill: #000000;" x="11.81992769241333">S</text></g><g transform="translate(840, 350)"><rect x="0" y="0" width="35" height="35" fill="#ffffff" stroke="#000000" stroke-width="1"></rect><text y="23.75" style="line-height: 1; font-family: Verdana; font-size: 16px; font-weight: bold; fill: #000000;" x="8.478248596191406">W</text></g><g transform="translate(420, 350)"><rect x="0" y="0" width="35" height="35" fill="#ffffff" stroke="#000000" stroke-width="1"></rect><text y="23.75" style="line-height: 1; font-family: Verdana; font-size: 16px; font-weight: bold; fill: #000000;" x="11.246064186096191">R</text></g><g transform="translate(315, 350)"><rect x="0" y="0" width="35" height="35" fill="#ffffff" stroke="#000000" stroke-width="1"></rect><text y="23.75" style="line-height: 1; font-family: Verdana; font-size: 16px; font-weight: bold; fill: #000000;" x="11.410028457641602">B</text></g><g transform="translate(245, 350)"><rect x="0" y="0" width="35" height="35" fill="#ffffff" stroke="#000000" stroke-width="1"></rect><text y="23.75" style="line-height: 1; font-family: Verdana; font-size: 16px; font-weight: bold; fill: #000000;" x="11.007934093475342">U</text></g><g transform="translate(490, 385)"><rect x="0" y="0" width="35" height="35" fill="#ffffff" stroke="#000000" stroke-width="1"></rect><text y="23.75" style="line-height: 1; font-family: Verdana; font-size: 16px; font-weight: bold; fill: #000000;" x="11.007934093475342">U</text></g><g transform="translate(700, 385)"><rect x="0" y="0" width="35" height="35" fill="#ffffff" stroke="#000000" stroke-width="1"></rect><text y="23.75" style="line-height: 1; font-family: Verdana; font-size: 16px; font-weight: bold; fill: #000000;" x="11.410028457641602">B</text><text x="0.5" y="10.5" style="line-height: 1; font-family: Verdana; font-size: 10px; font-weight: normal; fill: #000000;">▾16</text></g><g transform="translate(770, 385)"><rect x="0" y="0" width="35" height="35" fill="#ffffff" stroke="#000000" stroke-width="1"></rect><text y="23.75" style="line-height: 1; font-family: Verdana; font-size: 16px; font-weight: bold; fill: #000000;" x="11.714527130126953">C</text></g><g transform="translate(840, 385)"><rect x="0" y="0" width="35" height="35" fill="#ffffff" stroke="#000000" stroke-width="1"></rect><text y="23.75" style="line-height: 1; font-family: Verdana; font-size: 16px; font-weight: bold; fill: #000000;" x="10.70343542098999">O</text></g><g transform="translate(420, 385)"><rect x="0" y="0" width="35" height="35" fill="#ffffff" stroke="#000000" stroke-width="1"></rect><text y="23.75" style="line-height: 1; font-family: Verdana; font-size: 16px; font-weight: bold; fill: #000000;" x="11.246064186096191">R</text></g><g transform="translate(315, 385)"><rect x="0" y="0" width="35" height="35" fill="#ffffff" stroke="#000000" stroke-width="1"></rect><text y="23.75" style="line-height: 1; font-family: Verdana; font-size: 16px; font-weight: bold; fill: #000000;" x="12.038541793823242">E</text></g><g transform="translate(245, 385)"><rect x="0" y="0" width="35" height="35" fill="#ffffff" stroke="#000000" stroke-width="1"></rect><text y="23.75" style="line-height: 1; font-family: Verdana; font-size: 16px; font-weight: bold; fill: #000000;" x="13.135517597198486">I</text></g><g transform="translate(490, 420)"><rect x="0" y="0" width="35" height="35" fill="#d5d5d5" stroke="#000000" stroke-width="1"></rect><text y="23.75" style="line-height: 1; font-family: Verdana; font-size: 16px; font-weight: bold; fill: #000000;" x="9.922668933868408">M</text></g><g transform="translate(665, 420)"><rect x="0" y="0" width="35" height="35" fill="#ffffff" stroke="#000000" stroke-width="1"></rect><text y="23.75" style="line-height: 1; font-family: Verdana; font-size: 16px; font-weight: bold; fill: #000000;" x="11.246064186096191">R</text><text x="0.5" y="10.5" style="line-height: 1; font-family: Verdana; font-size: 10px; font-weight: normal; fill: #000000;">▸4</text></g><g transform="translate(700, 420)"><rect x="0" y="0" width="35" height="35" fill="#ffffff" stroke="#000000" stroke-width="1"></rect><text y="23.75" style="line-height: 1; font-family: Verdana; font-size: 16px; font-weight: bold; fill: #000000;" x="13.135517597198486">I</text></g><g transform="translate(735, 420)"><rect x="0" y="0" width="35" height="35" fill="#ffffff" stroke="#000000" stroke-width="1"></rect><text y="23.75" style="line-height: 1; font-family: Verdana; font-size: 16px; font-weight: bold; fill: #000000;" x="11.714527130126953">C</text></g><g transform="translate(770, 420)"><rect x="0" y="0" width="35" height="35" fill="#ffffff" stroke="#000000" stroke-width="1"></rect><text y="23.75" style="line-height: 1; font-family: Verdana; font-size: 16px; font-weight: bold; fill: #000000;" x="10.804929733276367">H</text></g><g transform="translate(805, 420)"><rect x="0" y="0" width="35" height="35" fill="#ffffff" stroke="#000000" stroke-width="1"></rect><text y="23.75" style="line-height: 1; font-family: Verdana; font-size: 16px; font-weight: bold; fill: #000000;" x="11.292908668518066">A</text></g><g transform="translate(840, 420)"><rect x="0" y="0" width="35" height="35" fill="#ffffff" stroke="#000000" stroke-width="1"></rect><text y="23.75" style="line-height: 1; font-family: Verdana; font-size: 16px; font-weight: bold; fill: #000000;" x="11.246064186096191">R</text></g><g transform="translate(875, 420)"><rect x="0" y="0" width="35" height="35" fill="#ffffff" stroke="#000000" stroke-width="1"></rect><text y="23.75" style="line-height: 1; font-family: Verdana; font-size: 16px; font-weight: bold; fill: #000000;" x="10.86348581314087">D</text></g><g transform="translate(420, 420)"><rect x="0" y="0" width="35" height="35" fill="#ffffff" stroke="#000000" stroke-width="1"></rect><text y="23.75" style="line-height: 1; font-family: Verdana; font-size: 16px; font-weight: bold; fill: #000000;" x="12.038541793823242">E</text></g><g transform="translate(245, 420)"><rect x="0" y="0" width="35" height="35" fill="#ffffff" stroke="#000000" stroke-width="1"></rect><text y="23.75" style="line-height: 1; font-family: Verdana; font-size: 16px; font-weight: bold; fill: #000000;" x="11.714527130126953">C</text><text x="0.5" y="10.5" style="line-height: 1; font-family: Verdana; font-size: 10px; font-weight: normal; fill: #000000;">▸19</text></g><g transform="translate(280, 420)"><rect x="0" y="0" width="35" height="35" fill="#ffffff" stroke="#000000" stroke-width="1"></rect><text y="23.75" style="line-height: 1; font-family: Verdana; font-size: 16px; font-weight: bold; fill: #000000;" x="12.038541793823242">E</text></g><g transform="translate(315, 420)"><rect x="0" y="0" width="35" height="35" fill="#ffffff" stroke="#000000" stroke-width="1"></rect><text y="23.75" style="line-height: 1; font-family: Verdana; font-size: 16px; font-weight: bold; fill: #000000;" x="10.730756282806396">N</text></g><g transform="translate(350, 420)"><rect x="0" y="0" width="35" height="35" fill="#ffffff" stroke="#000000" stroke-width="1"></rect><text y="23.75" style="line-height: 1; font-family: Verdana; font-size: 16px; font-weight: bold; fill: #000000;" x="10.70343542098999">O</text></g><g transform="translate(385, 420)"><rect x="0" y="0" width="35" height="35" fill="#ffffff" stroke="#000000" stroke-width="1"></rect><text y="23.75" style="line-height: 1; font-family: Verdana; font-size: 16px; font-weight: bold; fill: #000000;" x="12.050252914428711">T</text></g><g transform="translate(700, 455)"><rect x="0" y="0" width="35" height="35" fill="#ffffff" stroke="#000000" stroke-width="1"></rect><text y="23.75" style="line-height: 1; font-family: Verdana; font-size: 16px; font-weight: bold; fill: #000000;" x="10.730756282806396">N</text></g><g transform="translate(770, 455)"><rect x="0" y="0" width="35" height="35" fill="#ffffff" stroke="#000000" stroke-width="1"></rect><text y="23.75" style="line-height: 1; font-family: Verdana; font-size: 16px; font-weight: bold; fill: #000000;" x="12.038541793823242">E</text></g><g transform="translate(840, 455)"><rect x="0" y="0" width="35" height="35" fill="#ffffff" stroke="#000000" stroke-width="1"></rect><text y="23.75" style="line-height: 1; font-family: Verdana; font-size: 16px; font-weight: bold; fill: #000000;" x="12.050252914428711">T</text></g><g transform="translate(420, 455)"><rect x="0" y="0" width="35" height="35" fill="#ffffff" stroke="#000000" stroke-width="1"></rect><text y="23.75" style="line-height: 1; font-family: Verdana; font-size: 16px; font-weight: bold; fill: #000000;" x="11.246064186096191">R</text></g><g transform="translate(245, 455)"><rect x="0" y="0" width="35" height="35" fill="#ffffff" stroke="#000000" stroke-width="1"></rect><text y="23.75" style="line-height: 1; font-family: Verdana; font-size: 16px; font-weight: bold; fill: #000000;" x="11.33585500717163">K</text></g><g transform="translate(700, 490)"><rect x="0" y="0" width="35" height="35" fill="#ffffff" stroke="#000000" stroke-width="1"></rect><text y="23.75" style="line-height: 1; font-family: Verdana; font-size: 16px; font-weight: bold; fill: #000000;" x="11.968274593353271">Z</text></g><g transform="translate(770, 490)"><rect x="0" y="0" width="35" height="35" fill="#ffffff" stroke="#000000" stroke-width="1"></rect><text y="23.75" style="line-height: 1; font-family: Verdana; font-size: 16px; font-weight: bold; fill: #000000;" x="10.730756282806396">N</text></g><g transform="translate(595, 245)"><rect x="0" y="0" width="35" height="35" fill="#ffffff" stroke="#000000" stroke-width="1"></rect><text y="23.75" style="line-height: 1; font-family: Verdana; font-size: 16px; font-weight: bold; fill: #000000;" x="10.730756282806396">N</text></g><g transform="translate(770, 245)"><rect x="0" y="0" width="35" height="35" fill="#ffffff" stroke="#000000" stroke-width="1"></rect><text y="23.75" style="line-height: 1; font-family: Verdana; font-size: 16px; font-weight: bold; fill: #000000;" x="12.405502319335938">L</text></g><g transform="translate(840, 245)"><rect x="0" y="0" width="35" height="35" fill="#ffffff" stroke="#000000" stroke-width="1"></rect><text y="23.75" style="line-height: 1; font-family: Verdana; font-size: 16px; font-weight: bold; fill: #000000;" x="11.292908668518066">A</text><text x="0.5" y="10.5" style="line-height: 1; font-family: Verdana; font-size: 10px; font-weight: normal; fill: #000000;">▾1</text></g><g transform="translate(420, 245)"><rect x="0" y="0" width="35" height="35" fill="#ffffff" stroke="#000000" stroke-width="1"></rect><text y="23.75" style="line-height: 1; font-family: Verdana; font-size: 16px; font-weight: bold; fill: #000000;" x="11.81992769241333">S</text><text x="0.5" y="10.5" style="line-height: 1; font-family: Verdana; font-size: 10px; font-weight: normal; fill: #000000;">▾9</text></g><g transform="translate(315, 245)"><rect x="0" y="0" width="35" height="35" fill="#ffffff" stroke="#000000" stroke-width="1"></rect><text y="23.75" style="line-height: 1; font-family: Verdana; font-size: 16px; font-weight: bold; fill: #000000;" x="11.81992769241333">S</text><text x="0.5" y="10.5" style="line-height: 1; font-family: Verdana; font-size: 10px; font-weight: normal; fill: #000000;">▾5</text></g><g transform="translate(0, 245)"><rect x="0" y="0" width="35" height="35" fill="#ffffff" stroke="#000000" stroke-width="1"></rect><text y="23.75" style="line-height: 1; font-family: Verdana; font-size: 16px; font-weight: bold; fill: #000000;" x="12.038541793823242">E</text><text x="0.5" y="10.5" style="line-height: 1; font-family: Verdana; font-size: 10px; font-weight: normal; fill: #000000;">▸17</text></g><g transform="translate(35, 245)"><rect x="0" y="0" width="35" height="35" fill="#ffffff" stroke="#000000" stroke-width="1"></rect><text y="23.75" style="line-height: 1; font-family: Verdana; font-size: 16px; font-weight: bold; fill: #000000;" x="11.394411087036133">V</text></g><g transform="translate(70, 245)"><rect x="0" y="0" width="35" height="35" fill="#ffffff" stroke="#000000" stroke-width="1"></rect><text y="23.75" style="line-height: 1; font-family: Verdana; font-size: 16px; font-weight: bold; fill: #000000;" x="12.038541793823242">E</text></g><g transform="translate(105, 245)"><rect x="0" y="0" width="35" height="35" fill="#ffffff" stroke="#000000" stroke-width="1"></rect><text y="23.75" style="line-height: 1; font-family: Verdana; font-size: 16px; font-weight: bold; fill: #000000;" x="11.246064186096191">R</text></g><g transform="translate(140, 245)"><rect x="0" y="0" width="35" height="35" fill="#ffffff" stroke="#000000" stroke-width="1"></rect><text y="23.75" style="line-height: 1; font-family: Verdana; font-size: 16px; font-weight: bold; fill: #000000;" x="11.01573896408081">G</text></g><g transform="translate(175, 245)"><rect x="0" y="0" width="35" height="35" fill="#ffffff" stroke="#000000" stroke-width="1"></rect><text y="23.75" style="line-height: 1; font-family: Verdana; font-size: 16px; font-weight: bold; fill: #000000;" x="12.405502319335938">L</text></g><g transform="translate(210, 245)"><rect x="0" y="0" width="35" height="35" fill="#d5d5d5" stroke="#000000" stroke-width="1"></rect><text y="23.75" style="line-height: 1; font-family: Verdana; font-size: 16px; font-weight: bold; fill: #000000;" x="11.292908668518066">A</text></g><g transform="translate(245, 245)"><rect x="0" y="0" width="35" height="35" fill="#ffffff" stroke="#000000" stroke-width="1"></rect><text y="23.75" style="line-height: 1; font-family: Verdana; font-size: 16px; font-weight: bold; fill: #000000;" x="10.86348581314087">D</text></g><g transform="translate(280, 245)"><rect x="0" y="0" width="35" height="35" fill="#ffffff" stroke="#000000" stroke-width="1"></rect><text y="23.75" style="line-height: 1; font-family: Verdana; font-size: 16px; font-weight: bold; fill: #000000;" x="12.038541793823242">E</text></g><g transform="translate(490, 210)"><rect x="0" y="0" width="35" height="35" fill="#ffffff" stroke="#000000" stroke-width="1"></rect><text y="23.75" style="line-height: 1; font-family: Verdana; font-size: 16px; font-weight: bold; fill: #000000;" x="12.038541793823242">E</text></g><g transform="translate(525, 210)"><rect x="0" y="0" width="35" height="35" fill="#ffffff" stroke="#000000" stroke-width="1"></rect><text y="23.75" style="line-height: 1; font-family: Verdana; font-size: 16px; font-weight: bold; fill: #000000;" x="13.135517597198486">I</text></g><g transform="translate(560, 210)"><rect x="0" y="0" width="35" height="35" fill="#ffffff" stroke="#000000" stroke-width="1"></rect><text y="23.75" style="line-height: 1; font-family: Verdana; font-size: 16px; font-weight: bold; fill: #000000;" x="10.86348581314087">D</text></g><g transform="translate(595, 210)"><rect x="0" y="0" width="35" height="35" fill="#ffffff" stroke="#000000" stroke-width="1"></rect><text y="23.75" style="line-height: 1; font-family: Verdana; font-size: 16px; font-weight: bold; fill: #000000;" x="12.038541793823242">E</text></g><g transform="translate(630, 210)"><rect x="0" y="0" width="35" height="35" fill="#ffffff" stroke="#000000" stroke-width="1"></rect><text y="23.75" style="line-height: 1; font-family: Verdana; font-size: 16px; font-weight: bold; fill: #000000;" x="10.730756282806396">N</text></g><g transform="translate(665, 210)"><rect x="0" y="0" width="35" height="35" fill="#ffffff" stroke="#000000" stroke-width="1"></rect><text y="23.75" style="line-height: 1; font-family: Verdana; font-size: 16px; font-weight: bold; fill: #000000;" x="11.410028457641602">B</text></g><g transform="translate(700, 210)"><rect x="0" y="0" width="35" height="35" fill="#ffffff" stroke="#000000" stroke-width="1"></rect><text y="23.75" style="line-height: 1; font-family: Verdana; font-size: 16px; font-weight: bold; fill: #000000;" x="11.292908668518066">A</text></g><g transform="translate(735, 210)"><rect x="0" y="0" width="35" height="35" fill="#ffffff" stroke="#000000" stroke-width="1"></rect><text y="23.75" style="line-height: 1; font-family: Verdana; font-size: 16px; font-weight: bold; fill: #000000;" x="11.714527130126953">C</text></g><g transform="translate(770, 210)"><rect x="0" y="0" width="35" height="35" fill="#ffffff" stroke="#000000" stroke-width="1"></rect><text y="23.75" style="line-height: 1; font-family: Verdana; font-size: 16px; font-weight: bold; fill: #000000;" x="10.804929733276367">H</text></g><g transform="translate(455, 210)"><rect x="0" y="0" width="35" height="35" fill="#ffffff" stroke="#000000" stroke-width="1"></rect><text y="23.75" style="line-height: 1; font-family: Verdana; font-size: 16px; font-weight: bold; fill: #000000;" x="8.478248596191406">W</text><text x="0.5" y="10.5" style="line-height: 1; font-family: Verdana; font-size: 10px; font-weight: normal; fill: #000000;">▸14</text></g><g transform="translate(105, 210)"><rect x="0" y="0" width="35" height="35" fill="#ffffff" stroke="#000000" stroke-width="1"></rect><text y="23.75" style="line-height: 1; font-family: Verdana; font-size: 16px; font-weight: bold; fill: #000000;" x="11.292908668518066">A</text></g><g transform="translate(280, 210)"><rect x="0" y="0" width="35" height="35" fill="#ffffff" stroke="#000000" stroke-width="1"></rect><text y="23.75" style="line-height: 1; font-family: Verdana; font-size: 16px; font-weight: bold; fill: #000000;" x="11.246064186096191">R</text></g><g transform="translate(735, 35)"><rect x="0" y="0" width="35" height="35" fill="#ffffff" stroke="#000000" stroke-width="1"></rect><text y="23.75" style="line-height: 1; font-family: Verdana; font-size: 16px; font-weight: bold; fill: #000000;" x="11.410028457641602">B</text><text x="0.5" y="10.5" style="line-height: 1; font-family: Verdana; font-size: 10px; font-weight: normal; fill: #000000;">▸12</text></g><g transform="translate(770, 35)"><rect x="0" y="0" width="35" height="35" fill="#ffffff" stroke="#000000" stroke-width="1"></rect><text y="23.75" style="line-height: 1; font-family: Verdana; font-size: 16px; font-weight: bold; fill: #000000;" x="12.038541793823242">E</text></g><g transform="translate(805, 35)"><rect x="0" y="0" width="35" height="35" fill="#ffffff" stroke="#000000" stroke-width="1"></rect><text y="23.75" style="line-height: 1; font-family: Verdana; font-size: 16px; font-weight: bold; fill: #000000;" x="13.135517597198486">I</text></g><g transform="translate(840, 35)"><rect x="0" y="0" width="35" height="35" fill="#ffffff" stroke="#000000" stroke-width="1"></rect><text y="23.75" style="line-height: 1; font-family: Verdana; font-size: 16px; font-weight: bold; fill: #000000;" x="10.86348581314087">D</text></g><g transform="translate(875, 35)"><rect x="0" y="0" width="35" height="35" fill="#ffffff" stroke="#000000" stroke-width="1"></rect><text y="23.75" style="line-height: 1; font-family: Verdana; font-size: 16px; font-weight: bold; fill: #000000;" x="12.038541793823242">E</text></g><g transform="translate(595, 70)"><rect x="0" y="0" width="35" height="35" fill="#ffffff" stroke="#000000" stroke-width="1"></rect><text y="23.75" style="line-height: 1; font-family: Verdana; font-size: 16px; font-weight: bold; fill: #000000;" x="11.394411087036133">V</text><text x="0.5" y="10.5" style="line-height: 1; font-family: Verdana; font-size: 10px; font-weight: normal; fill: #000000;">▾7</text></g><g transform="translate(700, 70)"><rect x="0" y="0" width="35" height="35" fill="#ffffff" stroke="#000000" stroke-width="1"></rect><text y="23.75" style="line-height: 1; font-family: Verdana; font-size: 16px; font-weight: bold; fill: #000000;" x="10.86348581314087">D</text><text x="0.5" y="10.5" style="line-height: 1; font-family: Verdana; font-size: 10px; font-weight: normal; fill: #000000;">▾13</text></g><g transform="translate(770, 70)"><rect x="0" y="0" width="35" height="35" fill="#ffffff" stroke="#000000" stroke-width="1"></rect><text y="23.75" style="line-height: 1; font-family: Verdana; font-size: 16px; font-weight: bold; fill: #000000;" x="12.405502319335938">L</text></g><g transform="translate(490, 105)"><rect x="0" y="0" width="35" height="35" fill="#ffffff" stroke="#000000" stroke-width="1"></rect><text y="23.75" style="line-height: 1; font-family: Verdana; font-size: 16px; font-weight: bold; fill: #000000;" x="12.038541793823242">E</text></g><g transform="translate(525, 105)"><rect x="0" y="0" width="35" height="35" fill="#ffffff" stroke="#000000" stroke-width="1"></rect><text y="23.75" style="line-height: 1; font-family: Verdana; font-size: 16px; font-weight: bold; fill: #000000;" x="10.86348581314087">D</text></g><g transform="translate(560, 105)"><rect x="0" y="0" width="35" height="35" fill="#ffffff" stroke="#000000" stroke-width="1"></rect><text y="23.75" style="line-height: 1; font-family: Verdana; font-size: 16px; font-weight: bold; fill: #000000;" x="11.246064186096191">R</text></g><g transform="translate(595, 105)"><rect x="0" y="0" width="35" height="35" fill="#ffffff" stroke="#000000" stroke-width="1"></rect><text y="23.75" style="line-height: 1; font-family: Verdana; font-size: 16px; font-weight: bold; fill: #000000;" x="13.135517597198486">I</text></g><g transform="translate(630, 105)"><rect x="0" y="0" width="35" height="35" fill="#ffffff" stroke="#000000" stroke-width="1"></rect><text y="23.75" style="line-height: 1; font-family: Verdana; font-size: 16px; font-weight: bold; fill: #000000;" x="11.714527130126953">C</text></g><g transform="translate(700, 105)"><rect x="0" y="0" width="35" height="35" fill="#ffffff" stroke="#000000" stroke-width="1"></rect><text y="23.75" style="line-height: 1; font-family: Verdana; font-size: 16px; font-weight: bold; fill: #000000;" x="12.038541793823242">E</text></g><g transform="translate(770, 105)"><rect x="0" y="0" width="35" height="35" fill="#ffffff" stroke="#000000" stroke-width="1"></rect><text y="23.75" style="line-height: 1; font-family: Verdana; font-size: 16px; font-weight: bold; fill: #000000;" x="10.86348581314087">D</text></g><g transform="translate(455, 105)"><rect x="0" y="0" width="35" height="35" fill="#ffffff" stroke="#000000" stroke-width="1"></rect><text y="23.75" style="line-height: 1; font-family: Verdana; font-size: 16px; font-weight: bold; fill: #000000;" x="11.714527130126953">C</text><text x="0.5" y="10.5" style="line-height: 1; font-family: Verdana; font-size: 10px; font-weight: normal; fill: #000000;">▸6</text></g><g transform="translate(595, 140)"><rect x="0" y="0" width="35" height="35" fill="#ffffff" stroke="#000000" stroke-width="1"></rect><text y="23.75" style="line-height: 1; font-family: Verdana; font-size: 16px; font-weight: bold; fill: #000000;" x="11.394411087036133">V</text></g><g transform="translate(700, 140)"><rect x="0" y="0" width="35" height="35" fill="#ffffff" stroke="#000000" stroke-width="1"></rect><text y="23.75" style="line-height: 1; font-family: Verdana; font-size: 16px; font-weight: bold; fill: #000000;" x="12.405502319335938">L</text></g><g transform="translate(770, 140)"><rect x="0" y="0" width="35" height="35" fill="#d5d5d5" stroke="#000000" stroke-width="1"></rect><text y="23.75" style="line-height: 1; font-family: Verdana; font-size: 16px; font-weight: bold; fill: #000000;" x="11.81992769241333">S</text></g><g transform="translate(280, 140)"><rect x="0" y="0" width="35" height="35" fill="#ffffff" stroke="#000000" stroke-width="1"></rect><text y="23.75" style="line-height: 1; font-family: Verdana; font-size: 16px; font-weight: bold; fill: #000000;" x="11.292908668518066">A</text><text x="0.5" y="10.5" style="line-height: 1; font-family: Verdana; font-size: 10px; font-weight: normal; fill: #000000;">▾11</text></g><g transform="translate(595, 175)"><rect x="0" y="0" width="35" height="35" fill="#ffffff" stroke="#000000" stroke-width="1"></rect><text y="23.75" style="line-height: 1; font-family: Verdana; font-size: 16px; font-weight: bold; fill: #000000;" x="13.135517597198486">I</text></g><g transform="translate(700, 175)"><rect x="0" y="0" width="35" height="35" fill="#ffffff" stroke="#000000" stroke-width="1"></rect><text y="23.75" style="line-height: 1; font-family: Verdana; font-size: 16px; font-weight: bold; fill: #000000;" x="12.050252914428711">T</text></g><g transform="translate(770, 175)"><rect x="0" y="0" width="35" height="35" fill="#ffffff" stroke="#000000" stroke-width="1"></rect><text y="23.75" style="line-height: 1; font-family: Verdana; font-size: 16px; font-weight: bold; fill: #000000;" x="11.714527130126953">C</text></g><g transform="translate(105, 175)"><rect x="0" y="0" width="35" height="35" fill="#ffffff" stroke="#000000" stroke-width="1"></rect><text y="23.75" style="line-height: 1; font-family: Verdana; font-size: 16px; font-weight: bold; fill: #000000;" x="11.640353679656982">P</text><text x="0.5" y="10.5" style="line-height: 1; font-family: Verdana; font-size: 10px; font-weight: normal; fill: #000000;">▾2</text></g><g transform="translate(280, 175)"><rect x="0" y="0" width="35" height="35" fill="#ffffff" stroke="#000000" stroke-width="1"></rect><text y="23.75" style="line-height: 1; font-family: Verdana; font-size: 16px; font-weight: bold; fill: #000000;" x="11.292908668518066">A</text><text x="0.5" y="10.5" style="line-height: 1; font-family: Verdana; font-size: 10px; font-weight: normal; fill: #000000;">▸3</text></g><g transform="translate(315, 175)"><rect x="0" y="0" width="35" height="35" fill="#ffffff" stroke="#000000" stroke-width="1"></rect><text y="23.75" style="line-height: 1; font-family: Verdana; font-size: 16px; font-weight: bold; fill: #000000;" x="10.730756282806396">N</text></g><g transform="translate(350, 175)"><rect x="0" y="0" width="35" height="35" fill="#d5d5d5" stroke="#000000" stroke-width="1"></rect><text y="23.75" style="line-height: 1; font-family: Verdana; font-size: 16px; font-weight: bold; fill: #000000;" x="13.061344623565674">J</text></g><g transform="translate(385, 175)"><rect x="0" y="0" width="35" height="35" fill="#ffffff" stroke="#000000" stroke-width="1"></rect><text y="23.75" style="line-height: 1; font-family: Verdana; font-size: 16px; font-weight: bold; fill: #000000;" x="10.70343542098999">O</text></g><g transform="translate(770, 0)"><rect x="0" y="0" width="35" height="35" fill="#ffffff" stroke="#000000" stroke-width="1"></rect><text y="23.75" style="line-height: 1; font-family: Verdana; font-size: 16px; font-weight: bold; fill: #000000;" x="12.30010175704956">F</text><text x="0.5" y="10.5" style="line-height: 1; font-family: Verdana; font-size: 10px; font-weight: normal; fill: #000000;">▾10</text></g></g><g transform="translate(0, 543)"><g><rect x="4" y="3" width="35" height="35" fill="#000000"></rect><rect x="39" y="3" width="35" height="35" fill="#000000"></rect><rect x="74" y="3" width="35" height="35" fill="#000000"></rect><rect x="109" y="3" width="35" height="35" fill="#000000"></rect><rect x="144" y="3" width="35" height="35" fill="#000000"></rect><rect x="179" y="3" width="35" height="35" fill="#000000"></rect></g><g transform="translate(0, 0)"><rect x="0" y="0" width="35" height="35" fill="#d5d5d5" stroke="#000000" stroke-width="1"></rect><text y="23.75" style="line-height: 1; font-family: Verdana; font-size: 16px; font-weight: bold; fill: #000000;" x="13.061344623565674">J</text></g><g transform="translate(35, 0)"><rect x="0" y="0" width="35" height="35" fill="#d5d5d5" stroke="#000000" stroke-width="1"></rect><text y="23.75" style="line-height: 1; font-family: Verdana; font-size: 16px; font-weight: bold; fill: #000000;" x="11.292908668518066">A</text></g><g transform="translate(70, 0)"><rect x="0" y="0" width="35" height="35" fill="#d5d5d5" stroke="#000000" stroke-width="1"></rect><text y="23.75" style="line-height: 1; font-family: Verdana; font-size: 16px; font-weight: bold; fill: #000000;" x="11.81992769241333">S</text></g><g transform="translate(105, 0)"><rect x="0" y="0" width="35" height="35" fill="#d5d5d5" stroke="#000000" stroke-width="1"></rect><text y="23.75" style="line-height: 1; font-family: Verdana; font-size: 16px; font-weight: bold; fill: #000000;" x="9.922668933868408">M</text></g><g transform="translate(140, 0)"><rect x="0" y="0" width="35" height="35" fill="#d5d5d5" stroke="#000000" stroke-width="1"></rect><text y="23.75" style="line-height: 1; font-family: Verdana; font-size: 16px; font-weight: bold; fill: #000000;" x="13.135517597198486">I</text></g><g transform="translate(175, 0)"><rect x="0" y="0" width="35" height="35" fill="#d5d5d5" stroke="#000000" stroke-width="1"></rect><text y="23.75" style="line-height: 1; font-family: Verdana; font-size: 16px; font-weight: bold; fill: #000000;" x="10.730756282806396">N</text></g></g><text transform="translate(0, 623)" style="line-height: 1; font-family: Verdana; font-size: 12px; font-weight: normal; fill: #000000;"><tspan x="0" y="-15">Erstellt mit XWords - dem kostenlosen Online-Kreuzworträtsel-Generator</tspan><tspan x="0" y="0">https://www.xwords-generator.de/de</tspan></text></svg>